<svg xmlns="http://www.w3.org/2000/svg" width="145.278" height="46.107" viewBox="0 0 145.278 46.107">
  <g id="Group_5" data-name="Group 5" transform="translate(-94.502 -555.954)">
    <g id="Group_8" data-name="Group 8" transform="translate(94.502 555.954)">
      <path id="Path_9" data-name="Path 9" d="M136.013,603.32c-.367-.244-.669-.432-.958-.639Q124.792,595.344,114.532,588c-5.069-3.626-10.125-7.271-15.211-10.872a9.922,9.922,0,0,1-4.464-8.7c.026-2.341-.035-4.683-.051-7.024a5.324,5.324,0,0,1,.1-.683c.268.158.459.25.628.372q8.182,5.878,16.359,11.762,10.118,7.279,20.231,14.564a9.121,9.121,0,0,1,4.01,7.141c.141,2.8.01,5.611-.006,8.417A1.643,1.643,0,0,1,136.013,603.32Z" transform="translate(-94.695 -558.976)" fill="#f1c2b0"/>
      <path id="Path_10" data-name="Path 10" d="M94.571,604.8c.669.488,1.185.861,1.7,1.239q7.455,5.491,14.912,10.977a9.589,9.589,0,0,1,4.094,7.849c.071,2.543.016,5.089.014,7.633a4.477,4.477,0,0,1-.071.509,4.208,4.208,0,0,1-.545-.277q-6.1-4.424-12.188-8.856c-1.338-.973-2.686-1.932-4.008-2.925a9.452,9.452,0,0,1-3.964-7.845c-.021-2.464-.005-4.927,0-7.391C94.512,605.482,94.541,605.249,94.571,604.8Z" transform="translate(-94.502 -586.903)" fill="#334154"/>
      <path id="Path_11" data-name="Path 11" d="M171.647,584.06c-.175-.119-.354-.234-.525-.359q-7.953-5.787-15.9-11.581a9.515,9.515,0,0,1-4.07-7.984c-.019-2.443,0-4.888,0-7.331v-.851a5.886,5.886,0,0,1,.647.347c5.392,3.973,10.8,7.928,16.163,11.938A9.2,9.2,0,0,1,171.835,576c-.01,2.424,0,4.847,0,7.271v.706Z" transform="translate(-130.387 -555.954)" fill="#147288"/>
    </g>
    <g id="Group_9" data-name="Group 9" transform="translate(148.577 571.305)">
      <path id="Path_12" data-name="Path 12" d="M255.285,613.251l-10.4-10.451v11.263h-2.819V599.268a1.513,1.513,0,0,1,.338-1.037,1.118,1.118,0,0,1,.88-.384,2.3,2.3,0,0,1,1.6.834l10.4,10.419V597.847H258.1v14.817q0,1.556-1.06,1.556A2.684,2.684,0,0,1,255.285,613.251Z" transform="translate(-242.069 -597.847)" fill="#1c365b"/>
      <path id="Path_13" data-name="Path 13" d="M297.461,614.063V597.847h2.819v16.216Z" transform="translate(-277.163 -597.847)" fill="#1c365b"/>
      <path id="Path_14" data-name="Path 14" d="M335.371,614.063h-4.188l-.631-.631a8.738,8.738,0,0,1-3.357.631h-4.529a7.732,7.732,0,0,1-6.084-2.593,8.338,8.338,0,0,1-2.073-5.683,7.819,7.819,0,0,1,1.985-5.458,7.934,7.934,0,0,1,6.179-2.481h4.533a7.863,7.863,0,0,1,6.157,2.482,7.774,7.774,0,0,1,2.007,5.46,8.2,8.2,0,0,1-2.328,5.956Zm-2.819-8.277a5.161,5.161,0,0,0-1.421-3.519,5.106,5.106,0,0,0-3.924-1.6h-4.533a5.178,5.178,0,0,0-3.947,1.6,5.578,5.578,0,0,0-.158,7.263,5.151,5.151,0,0,0,4.1,1.713h4.534a6.174,6.174,0,0,0,1.083-.092l-1.96-1.983h4.124l.608.609A5.12,5.12,0,0,0,332.551,605.786Z" transform="translate(-287.964 -597.847)" fill="#1c365b"/>
      <path id="Path_15" data-name="Path 15" d="M385.326,614.063a7.744,7.744,0,0,1-6.09-2.593,8.333,8.333,0,0,1-2.075-5.683,7.821,7.821,0,0,1,1.985-5.458,7.935,7.935,0,0,1,6.18-2.481h4.533a7.864,7.864,0,0,1,6.157,2.481,7.768,7.768,0,0,1,2.007,5.458,8.334,8.334,0,0,1-2.075,5.683,7.744,7.744,0,0,1-6.09,2.593Zm0-13.4a5.177,5.177,0,0,0-3.947,1.6,5.578,5.578,0,0,0-.158,7.263,5.151,5.151,0,0,0,4.1,1.713h4.533a5.29,5.29,0,1,0,0-10.577Z" transform="translate(-327.658 -597.847)" fill="#1c365b"/>
      <path id="Path_16" data-name="Path 16" d="M441.307,614.063h-3.554l6.359-7.939-6.7-8.277h3.656l5.087,6.322a2.517,2.517,0,0,1,.009,3.828Zm11.827,0H456.7l-6.36-7.939,6.7-8.277h-3.676l-5.074,6.315a2.529,2.529,0,0,0,0,3.834Z" transform="translate(-365.832 -597.847)" fill="#1c365b"/>
    </g>
  </g>
</svg>
